<?xml version="1.0" ?><svg id="Balloon" style="enable-background:new 0 0 32 32;" version="1.1" viewBox="0 0 32 32" xml:space="preserve" xmlns="http://www.w3.org/2000/svg" xmlns:xlink="http://www.w3.org/1999/xlink"><style type="text/css">
	.st0{fill:#55C1FA;}
	.st1{fill:#F2C09E;}
</style><g><path class="st0" d="M14.143,2H5.5C3.57,2,2,3.57,2,5.5v8.643c0,0.552,0.448,1,1,1h11.143c0.552,0,1-0.448,1-1V3   C15.143,2.448,14.695,2,14.143,2z"/><path class="st0" d="M26.5,2h-8.643c-0.553,0-1,0.448-1,1v11.143c0,0.552,0.447,1,1,1H29c0.553,0,1-0.448,1-1V5.5   C30,3.57,28.43,2,26.5,2z"/><path class="st0" d="M14.143,16.857H3c-0.552,0-1,0.447-1,1V26.5C2,28.43,3.57,30,5.5,30h8.643c0.552,0,1-0.447,1-1V17.857   C15.143,17.305,14.695,16.857,14.143,16.857z"/><path class="st1" d="M29.383,16.934c-0.374-0.154-0.804-0.069-1.09,0.217L17.15,28.293c-0.286,0.286-0.372,0.716-0.217,1.09   C17.088,29.757,17.453,30,17.857,30H26.5c1.93,0,3.5-1.57,3.5-3.5v-8.643C30,17.453,29.757,17.088,29.383,16.934z"/></g></svg>